<?xml version="1.0" encoding="utf-8"?>
<!-- Generator: Adobe Illustrator 27.2.0, SVG Export Plug-In . SVG Version: 6.00 Build 0)  -->
<svg version="1.1" id="Layer_1" xmlns="http://www.w3.org/2000/svg" xmlns:xlink="http://www.w3.org/1999/xlink" x="0px" y="0px"
	 viewBox="0 0 60 58" style="enable-background:new 0 0 60 58;" xml:space="preserve">
<style type="text/css">
	.st0{fill-rule:evenodd;clip-rule:evenodd;fill:#F2F3F9;}
</style>
<path class="st0" d="M54.8,58.5h-9.3c-2.2,0-4.1-1.7-4.6-3.9c0,0-0.1,0-0.1,0V36.9c0-2.1-1.7-3.8-3.7-3.8c-2.1,0-3.7,1.7-3.7,3.8
	v16.6v0.1c0,1.2-0.4,2.3-1.1,3.1c-0.4,0.6-1,1-1.7,1c-1.1,0-2.1-1-2.1-2.2c0-0.6,0.3-1.2,0.7-1.6c0.3-0.3,0.5-0.8,0.5-1.3v-2.8v-4
	v-9.1c0-4.2,3.3-7.5,7.4-7.5c4.1,0,7.4,3.4,7.4,7.5v13.1c0,0.1,0,0.3,0,0.4c0,0,0,0,0,0v2.4c0,1.1,0.8,1.9,1.9,1.9h7.4
	c1,0,1.9-0.9,1.9-1.9V35.1c0-0.1,0-0.3,0-0.4c-0.5-8.5-6.9-15.2-14.8-15.2c-3.3,0-6.3,1.2-8.7,3.1c0,0,0,0,0,0
	c-0.2,0.2-0.6,0.3-0.9,0.3c-0.8,0-1.5-0.7-1.5-1.5c0-0.1,0-0.2,0-0.2c-0.1-1-0.9-1.8-1.8-1.8h-5.6c-2.1,0-3.7,1.7-3.7,3.9v29.2
	c0,0.2,0,0.3,0.1,0.5c0,0.1-0.1,0.3-0.1,0.5c0,2.7-2.1,4.9-4.6,4.9h-0.3H4.6c-2.6,0-4.6-2.2-4.6-4.9V20.5c0-2.7,2.1-4.9,4.6-4.9h4.6
	c3.1,0,5.6-2.6,5.6-5.8c0-3.2-2.5-5.8-5.6-5.8c-3.1,0-5.6,2.6-5.6,5.8c0,1.1-0.8,1.9-1.9,1.9c-1,0-1.9-0.9-1.9-1.9
	C0,4.4,4.2,0,9.3,0c5.1,0,9.3,4.4,9.3,9.7c0,0.5,0,1-0.1,1.4c0,0.1,0,0.2,0,0.3c-0.1,0.5-0.2,0.9-0.3,1.4c0,0,0,0,0,0.1
	c-0.3,1-0.8,1.9-1.4,2.7c-1.7,2.4-4.4,3.9-7.4,3.9H5.6c-1,0-1.9,0.9-1.9,1.9v31.2c0,1.1,0.8,1.9,1.9,1.9H15c-0.1-0.3-0.1-0.6-0.1-1
	V23.4c0-4.3,3.3-7.8,7.4-7.8h6.5c1.1,0,2.2,0.4,3,1.2c0,0,0,0,0,0c0.3,0.3,0.7,0.5,1.2,0.5c0.3,0,0.5-0.1,0.7-0.1c0.1,0,0.1,0,0.1,0
	c2.2-0.9,4.5-1.5,7-1.5c9.6,0,17.5,7.7,18.5,17.5c0.1,0.3,0.1,0.6,0.1,1v19.5C59.4,56.3,57.4,58.5,54.8,58.5z M24.1,54.6
	c1,0,1.9,0.9,1.9,1.9c0,1.1-0.8,1.9-1.9,1.9c-1,0-1.9-0.9-1.9-1.9C22.3,55.5,23.1,54.6,24.1,54.6z"/>
</svg>
