<?xml version="1.0" encoding="utf-8"?>
<!-- Generator: Adobe Illustrator 27.2.0, SVG Export Plug-In . SVG Version: 6.00 Build 0)  -->
<svg version="1.1" id="Layer_1" xmlns="http://www.w3.org/2000/svg" xmlns:xlink="http://www.w3.org/1999/xlink" x="0px" y="0px"
	 viewBox="0 0 400 400" style="enable-background:new 0 0 400 400;" xml:space="preserve">
<style type="text/css">
	.st0{fill:#F4F4F9;}
	.st1{fill:#231F20;}
	.st2{font-family:'Roboto-Bold';}
	.st3{font-size:33px;}
	.st4{clip-path:url(#SVGID_00000150804892991421762960000015468561184585395356_);}
	.st5{fill:#001E36;}
	.st6{fill:#31A8FF;}
	.st7{clip-path:url(#SVGID_00000145031469337528425030000011169914701989910453_);}
	.st8{clip-path:url(#SVGID_00000128444951503987595970000004193954960286576045_);}
	.st9{fill:#330000;}
	.st10{fill:#FF9A00;}
	.st11{fill:#49021F;}
	.st12{fill:#FF3366;}
	.st13{fill:#00005B;}
	.st14{fill:#9999FF;}
	.st15{fill-rule:evenodd;clip-rule:evenodd;fill:url(#SVGID_00000142892314984005463050000004364144844190684080_);}
	.st16{fill-rule:evenodd;clip-rule:evenodd;fill:#FFFFFF;}
</style>
<g id="Backgrounds">
	<rect class="st0" width="400" height="400"/>
	<rect class="st0" width="400" height="400"/>
</g>
<g id="Content">
	<text transform="matrix(1 0 0 1 83.62 54.5)" class="st1 st2 st3">GRAPHIC DESIGN</text>
	
		<image style="overflow:visible;enable-background:new    ;" width="420" height="420" xlink:href="../../../Downloads/procreate-icon.png"  transform="matrix(0.23 0 0 0.23 40.83 270.97)">
	</image>
	<g>
		<defs>
			<rect id="SVGID_1_" x="40.8" y="172.5" width="95.3" height="93"/>
		</defs>
		<clipPath id="SVGID_00000157298497203731099400000008674364144798151587_">
			<use xlink:href="#SVGID_1_"  style="overflow:visible;"/>
		</clipPath>
		<g style="clip-path:url(#SVGID_00000157298497203731099400000008674364144798151587_);">
			<g>
				<path class="st5" d="M119.3,172.5H57.7c-9.3,0-16.9,7.6-16.9,16.9v59.2c0,9.3,7.6,16.9,16.9,16.9h61.6c9.3,0,16.9-7.6,16.9-16.9
					v-59.2C136.2,180.1,128.6,172.5,119.3,172.5z"/>
				<path class="st6" d="M90.9,238.2H65.7c-0.4,0-0.6-0.2-0.6-0.7v-40.6c0-0.1,0-0.2,0-0.2c0-0.1,0.1-0.1,0.1-0.2
					c0.1-0.1,0.1-0.1,0.2-0.1c0.1,0,0.2,0,0.2,0h7.8c0.1,0,0.1,0,0.2,0s0.1,0.1,0.2,0.1c0,0,0.1,0.1,0.1,0.1c0,0.1,0,0.1,0,0.2v33.4
					h18.4c0.4,0,0.5,0.2,0.4,0.6l-1.2,6.9c0,0.1,0,0.2-0.1,0.3s-0.1,0.2-0.2,0.2C91.2,238.2,91,238.3,90.9,238.2L90.9,238.2z"/>
				<path class="st6" d="M97.2,206.4h7c0.2,0,0.4,0.1,0.5,0.2c0.2,0.1,0.3,0.3,0.3,0.5c0.2,0.3,0.3,0.6,0.3,0.9
					c0.1,0.4,0.2,0.8,0.2,1.2c0,0.4,0.1,0.9,0.1,1.4c1.2-1.4,2.6-2.6,4.2-3.4c1.8-1,3.8-1.5,5.9-1.4c0.1,0,0.2,0,0.2,0
					s0.1,0.1,0.2,0.1c0.1,0.1,0.1,0.1,0.1,0.2c0,0.1,0,0.1,0,0.2v7.7c0,0.3-0.2,0.4-0.6,0.4c-2.6-0.2-5.2,0.3-7.5,1.3
					c-0.8,0.4-1.5,0.9-2.1,1.5v20.3c0,0.4-0.2,0.6-0.5,0.6h-7.7c-0.1,0-0.2,0-0.3,0c-0.1,0-0.2-0.1-0.2-0.1
					c-0.1-0.1-0.1-0.1-0.1-0.2s0-0.2,0-0.3v-22c0-0.9,0-1.9,0-3c0-1-0.1-2.1-0.1-3.1c0-0.9-0.1-1.8-0.3-2.6c0-0.1,0-0.1,0-0.2
					s0.1-0.1,0.1-0.2c0.1-0.1,0.1-0.1,0.2-0.1C97.1,206.4,97.1,206.4,97.2,206.4L97.2,206.4L97.2,206.4z"/>
			</g>
		</g>
	</g>
	<g>
		<defs>
			<rect id="SVGID_00000177444739132158912440000004114411950931108782_" x="260.8" y="72.6" width="96.3" height="93.9"/>
		</defs>
		<clipPath id="SVGID_00000119800169439588902890000003204666935100725660_">
			<use xlink:href="#SVGID_00000177444739132158912440000004114411950931108782_"  style="overflow:visible;"/>
		</clipPath>
		<g style="clip-path:url(#SVGID_00000119800169439588902890000003204666935100725660_);">
			<g>
				<path class="st5" d="M340.1,72.6h-62.2c-9.4,0-17,7.6-17,17.1v59.8c0,9.4,7.6,17.1,17,17.1h62.2c9.4,0,17-7.6,17-17.1V89.6
					C357.1,80.2,349.5,72.6,340.1,72.6z"/>
				<path class="st6" d="M282.5,138.4V97.1c0-0.3,0.1-0.4,0.4-0.4c0.7,0,1.3,0,2.3,0c1,0,2,0,3.1-0.1s2.3,0,3.5-0.1
					c1.2,0,2.4,0,3.6,0c3.3,0,6,0.4,8.3,1.2c2,0.7,3.9,1.8,5.4,3.3c1.3,1.3,2.3,2.8,2.9,4.6c0.6,1.7,0.9,3.4,0.9,5.2
					c0,3.4-0.8,6.3-2.4,8.5c-1.6,2.2-3.9,3.9-6.5,4.9c-2.7,1-5.7,1.4-9,1.4c-1,0-1.6,0-2,0c-0.4,0-1,0-1.7,0v12.9c0,0.1,0,0.2,0,0.2
					c0,0.1-0.1,0.1-0.1,0.2c-0.1,0.1-0.1,0.1-0.2,0.1s-0.2,0-0.2,0H283C282.7,138.9,282.5,138.8,282.5,138.4L282.5,138.4z
					 M291.2,104.4v13.5c0.6,0,1.1,0.1,1.5,0.1h2.1c1.6,0,3.1-0.2,4.6-0.7c1.3-0.4,2.4-1.1,3.3-2.1c0.8-1,1.3-2.4,1.3-4.1
					c0-1.2-0.3-2.5-0.9-3.6c-0.7-1-1.7-1.8-2.8-2.3c-1.5-0.6-3.1-0.9-4.7-0.8c-1,0-2,0-2.7,0C292.1,104.3,291.5,104.4,291.2,104.4
					L291.2,104.4L291.2,104.4z"/>
				<path class="st6" d="M337.9,115.4c-1.2-0.6-2.5-1.1-3.8-1.4c-1.5-0.3-3-0.5-4.5-0.5c-0.8,0-1.6,0.1-2.4,0.3
					c-0.5,0.1-1,0.4-1.3,0.8c-0.2,0.3-0.3,0.7-0.3,1.1c0,0.4,0.1,0.7,0.4,1c0.4,0.4,0.8,0.8,1.4,1.1c0.9,0.5,1.9,0.9,2.8,1.3
					c2.2,0.7,4.2,1.7,6.2,2.9c1.3,0.8,2.4,2,3.2,3.3c0.6,1.3,1,2.7,0.9,4.1c0,1.9-0.5,3.8-1.5,5.3c-1.1,1.6-2.7,2.8-4.5,3.6
					c-2,0.9-4.4,1.3-7.3,1.3c-1.8,0-3.7-0.1-5.5-0.5c-1.4-0.3-2.8-0.7-4.1-1.3c-0.1-0.1-0.3-0.2-0.3-0.3c-0.1-0.1-0.1-0.3-0.1-0.4
					v-7c0-0.1,0-0.1,0-0.2s0.1-0.1,0.1-0.2c0.1,0,0.1,0,0.2,0s0.1,0,0.2,0.1c1.5,0.9,3.2,1.6,5,2c1.5,0.4,3.1,0.6,4.7,0.6
					c1.5,0,2.6-0.2,3.3-0.6c0.3-0.1,0.6-0.4,0.8-0.7c0.2-0.3,0.3-0.6,0.3-1c0-0.6-0.3-1.1-1-1.6c-0.6-0.5-2-1.1-3.9-1.9
					c-2-0.7-4-1.7-5.7-2.9c-1.3-0.9-2.3-2-3-3.4c-0.6-1.3-1-2.7-0.9-4.1c0-1.7,0.5-3.4,1.4-4.8c1-1.6,2.5-2.9,4.2-3.7
					c1.9-0.9,4.3-1.4,7.1-1.4c1.7,0,3.3,0.1,5,0.4c1.2,0.2,2.4,0.5,3.5,0.9c0.1,0,0.2,0.1,0.2,0.1c0.1,0.1,0.1,0.1,0.1,0.2
					c0,0.2,0.1,0.3,0.1,0.5v6.5c0,0.1,0,0.2,0,0.2c0,0.1-0.1,0.1-0.1,0.2c-0.1,0-0.2,0.1-0.3,0.1S337.9,115.5,337.9,115.4
					L337.9,115.4z"/>
			</g>
		</g>
	</g>
	<g>
		<defs>
			<rect id="SVGID_00000143584040612336169430000018373232332155399074_" x="41.5" y="73.4" width="95.4" height="93"/>
		</defs>
		<clipPath id="SVGID_00000127046424894399890900000000958656116101056942_">
			<use xlink:href="#SVGID_00000143584040612336169430000018373232332155399074_"  style="overflow:visible;"/>
		</clipPath>
		<g style="clip-path:url(#SVGID_00000127046424894399890900000000958656116101056942_);">
			<g>
				<path class="st9" d="M120,73.4H58.4c-9.3,0-16.9,7.6-16.9,16.9v59.2c0,9.3,7.6,16.9,16.9,16.9H120c9.3,0,16.9-7.6,16.9-16.9
					V90.3C136.9,81,129.3,73.4,120,73.4z"/>
				<path class="st10" d="M87.7,129.2H73l-3,9.3c0,0.2-0.1,0.3-0.3,0.4c-0.1,0.1-0.3,0.2-0.5,0.1h-7.5c-0.4,0-0.6-0.2-0.5-0.7
					L74,101.6c0.1-0.4,0.3-0.8,0.4-1.3c0.2-0.8,0.2-1.7,0.3-2.6c0-0.1,0-0.1,0-0.2s0.1-0.1,0.1-0.2c0,0,0.1-0.1,0.2-0.1
					c0.1,0,0.1,0,0.2,0h10.2c0.3,0,0.5,0.1,0.5,0.3l14.5,40.9c0.1,0.4,0,0.6-0.4,0.6h-8.3c-0.1,0-0.3,0-0.4-0.1
					c-0.1-0.1-0.2-0.2-0.2-0.3L87.7,129.2L87.7,129.2z M75.2,121.2h10.1c-0.3-0.8-0.6-1.8-0.9-2.9c-0.3-1.1-0.7-2.2-1.1-3.4
					c-0.4-1.2-0.8-2.4-1.2-3.7c-0.4-1.2-0.7-2.4-1.1-3.5s-0.6-2.2-0.9-3.1h-0.1c-0.4,1.7-0.8,3.4-1.3,5.1c-0.6,1.9-1.2,3.9-1.8,5.9
					C76.5,117.6,75.9,119.5,75.2,121.2L75.2,121.2L75.2,121.2z"/>
				<path class="st10" d="M109,104c-0.7,0-1.3-0.1-1.9-0.3c-0.6-0.2-1.2-0.6-1.6-1.1c-0.4-0.5-0.8-1.1-1-1.7c-0.2-0.6-0.3-1.3-0.3-2
					c0-0.7,0.1-1.3,0.3-1.9s0.6-1.2,1.1-1.6c0.5-0.4,1-0.8,1.6-1c0.6-0.2,1.3-0.3,1.9-0.3c1.5,0,2.7,0.5,3.6,1.4
					c0.4,0.5,0.8,1,1,1.6c0.2,0.6,0.3,1.3,0.3,1.9c0,0.7-0.1,1.3-0.3,2s-0.6,1.2-1.1,1.7c-0.5,0.5-1.1,0.8-1.7,1.1
					C110.3,104,109.6,104.1,109,104L109,104z M104.6,138.5v-30.6c0-0.4,0.2-0.6,0.5-0.6h7.9c0.3,0,0.5,0.2,0.5,0.6v30.6
					c0,0.4-0.2,0.6-0.5,0.6h-7.8C104.8,139.2,104.6,138.9,104.6,138.5z"/>
			</g>
		</g>
	</g>
	<g>
		<path class="st11" d="M231.1,73.1h-62c-9.4,0-17,7.6-17,17v59.6c0,9.4,7.6,17,17,17h62c9.4,0,17-7.6,17-17V90.1
			C248.1,80.8,240.5,73.1,231.1,73.1z"/>
		<path class="st12" d="M187,97.6v41c0,0.4-0.2,0.6-0.6,0.6h-7.8c-0.3,0-0.5-0.2-0.5-0.6v-41c0-0.3,0.2-0.5,0.6-0.5h7.8
			c0.1,0,0.1,0,0.2,0s0.1,0.1,0.2,0.1s0.1,0.1,0.1,0.2S187,97.6,187,97.6z"/>
		<path class="st12" d="M210,139.9c-3,0.1-5.9-0.6-8.6-1.8c-2.5-1.2-4.6-3.1-6-5.4c-1.5-2.4-2.2-5.5-2.2-9.1c0-3,0.7-5.9,2.2-8.4
			c1.5-2.6,3.7-4.8,6.4-6.2c2.8-1.6,6.2-2.3,10.1-2.3c0.2,0,0.5,0,0.8,0c0.3,0,0.8,0.1,1.2,0.1V94.1c0-0.3,0.1-0.4,0.4-0.4h8.1
			c0.1,0,0.1,0,0.2,0c0.1,0,0.1,0.1,0.1,0.1s0.1,0.1,0.1,0.1c0,0.1,0,0.1,0,0.2v38.1c0,0.7,0,1.5,0.1,2.4c0.1,0.9,0.1,1.6,0.2,2.3
			c0,0.1,0,0.3-0.1,0.4c-0.1,0.1-0.2,0.2-0.3,0.3c-2.1,0.9-4.3,1.5-6.5,1.9C214.2,139.7,212.1,139.9,210,139.9L210,139.9z M214,132
			v-17.6c-0.4-0.1-0.7-0.2-1.1-0.2c-0.4,0-0.9-0.1-1.3-0.1c-1.6,0-3.1,0.3-4.5,1c-1.4,0.7-2.5,1.7-3.4,3c-0.9,1.3-1.3,3-1.3,5.1
			c0,1.4,0.2,2.8,0.7,4.1c0.4,1.1,1,2,1.8,2.8c0.8,0.7,1.7,1.3,2.7,1.6c1.1,0.4,2.2,0.5,3.3,0.5c0.6,0,1.2,0,1.7-0.1
			C213,132.2,213.5,132.1,214,132L214,132z"/>
	</g>
	<g>
		<path class="st13" d="M230.4,172.9h-62.1c-9.4,0-17,7.6-17,17v59.7c0,9.4,7.6,17,17,17h62.1c9.4,0,17-7.6,17-17v-59.7
			C247.4,180.5,239.8,172.9,230.4,172.9z"/>
		<path class="st14" d="M175.6,239.2h-7.7c-0.3,0-0.5-0.2-0.5-0.6v-41c0-0.4,0.1-0.6,0.4-0.6c1.5-0.1,2.8-0.1,3.9-0.1l3.1-0.1
			c1,0,2,0,3.1,0h3.5c3.6,0,6.6,0.5,9.1,1.5c2.3,0.9,4.2,2.4,5.6,4.4c1.3,1.9,2,4.2,2,7.1c0,1.7-0.3,3.3-1,4.8
			c-0.7,1.5-1.6,2.8-2.8,3.8c-1.2,1.1-2.6,2-4.2,2.6c0.4,0.6,1,1.4,1.8,2.6c0.8,1.1,1.6,2.4,2.6,3.8c0.9,1.4,1.9,2.8,2.8,4.2
			c0.9,1.4,1.8,2.7,2.5,3.9c0.8,1.2,1.3,2.1,1.7,2.8c0.1,0.1,0.1,0.1,0.1,0.2s0,0.2,0,0.3c0,0,0,0.1,0,0.1c0,0,0,0.1-0.1,0.1
			s-0.1,0-0.1,0.1c0,0-0.1,0-0.1,0h-9.4c-0.2,0-0.4,0-0.6-0.1c-0.1-0.1-0.2-0.2-0.3-0.3c-0.5-0.7-1.1-1.6-1.8-2.7
			c-0.7-1.1-1.5-2.4-2.3-3.7c-0.8-1.4-1.6-2.7-2.4-4.1c-0.8-1.3-1.5-2.5-2.1-3.6c-0.2-0.3-0.4-0.6-0.7-0.9c-0.2-0.2-0.5-0.2-0.8-0.2
			h-4.8v15C176.1,239,175.9,239.2,175.6,239.2L175.6,239.2z M176.1,215.9h5c1.4,0,2.9-0.2,4.2-0.6c1.1-0.3,2-1,2.7-1.9
			c0.7-0.9,1-2.1,1-3.2c0-2-0.7-3.4-2.2-4.3c-1.5-0.9-3.4-1.3-5.8-1.3c-1,0-2,0-2.9,0s-1.6,0.1-2.1,0.1V215.9L176.1,215.9z"/>
		<path class="st14" d="M232,207.6V232c0,1.1,0,2,0,2.9s0.1,1.6,0.1,2.2c0.1,0.6,0.1,1.1,0.2,1.6c0,0.3-0.1,0.5-0.4,0.5H225
			c-0.2,0-0.3,0-0.5-0.1s-0.2-0.2-0.3-0.4c-0.1-0.3-0.2-0.6-0.2-1c-0.1-0.3-0.1-0.7-0.1-1c-1.3,1.2-2.8,2-4.5,2.5
			c-1.4,0.4-2.9,0.6-4.5,0.6c-1.5,0-3-0.2-4.4-0.7c-1.3-0.4-2.5-1.2-3.4-2.2c-1-1.1-1.8-2.4-2.3-3.9c-0.6-1.9-0.9-3.8-0.8-5.7v-19.8
			c0-0.1,0-0.1,0-0.2s0.1-0.1,0.1-0.2c0.1-0.1,0.1-0.1,0.2-0.1c0.1,0,0.1,0,0.2,0h7.9c0.1,0,0.1,0,0.2,0s0.1,0.1,0.2,0.1
			c0.1,0.1,0.1,0.1,0.1,0.2c0,0.1,0,0.1,0,0.2v18.7c0,1.8,0.4,3.1,1.2,4.2c0.8,1,2.1,1.5,3.9,1.5c0.9,0,1.9-0.1,2.7-0.5
			c0.8-0.3,1.6-0.8,2.3-1.3v-22.6c0-0.3,0.2-0.4,0.6-0.4h7.9c0.1,0,0.1,0,0.2,0s0.1,0.1,0.2,0.1c0,0,0.1,0.1,0.1,0.2
			S232.1,207.5,232,207.6L232,207.6z"/>
	</g>
	<g>
		
			<linearGradient id="SVGID_00000120536136458085523880000012408603310643103908_" gradientUnits="userSpaceOnUse" x1="353.3921" y1="-316.4681" x2="266.2621" y2="-220.3781" gradientTransform="matrix(1 0 0 -1 0 -50)">
			<stop  offset="0" style="stop-color:#823AF3"/>
			<stop  offset="0.36" style="stop-color:#4B66E1"/>
			<stop  offset="0.91" style="stop-color:#01F1C4"/>
		</linearGradient>
		<path style="fill-rule:evenodd;clip-rule:evenodd;fill:url(#SVGID_00000120536136458085523880000012408603310643103908_);" d="
			M347.1,171.4h-75.8c-4.6,0-8.4,3.8-8.4,8.4v75.8c0,4.7,3.8,8.4,8.4,8.4h75.8c4.6,0,8.4-3.8,8.4-8.4v-75.8
			C355.5,175.2,351.8,171.4,347.1,171.4L347.1,171.4z"/>
		<path class="st16" d="M327,234.5c-3.1,2.9-5.1,4.8-9.7,7.1c-2.6,1.3-5.5,2.1-8.3,2.1c-8.3,0-12.3-7.6-13.1-14.2
			c-2.1-16.9,12.8-40,23.1-40c2.4,0,4.6,2.1,5,5.4c0.6,5.1,0.5,8.7-4.7,13.1c-0.6,0.5-0.7,1.2-0.5,1.7c0.5,0.7,1.9,0.8,4.7-0.7
			c5.6-2.8,7.6-7.2,7-12.2c-0.7-5.6-5.6-10.3-12.1-10.3c-3.2,0-6.7,0.9-9.8,2.9c-13.6,8.3-22.4,27.2-20.6,41.6
			c0.6,4.6,2.5,9.6,6.1,13c2.4,2.2,6.8,5,12,5c5.6,0,10.3-2.2,14.5-4.8c2.9-1.8,5.3-4.1,7.3-6.3C331.2,234.7,328.8,232.8,327,234.5
			L327,234.5z"/>
	</g>
</g>
</svg>
