<?xml version="1.0" encoding="UTF-8"?><svg xmlns="http://www.w3.org/2000/svg" xmlns:xlink="http://www.w3.org/1999/xlink" viewBox="0 0 800 1280"><defs><clipPath id="clippath"><rect width="800" height="1280" style="fill:none;"/></clipPath></defs><g id="backgrounds"><rect width="800" height="1280" style="fill:#202c39;"/></g><g id="content"><g style="clip-path:url(#clippath);"><path d="m-37.58,418.33l45.6-12.59c45.8-12.43,137-37.61,228.4-47.92s182.6-6.05,274,13.08c91.4,19.13,182.6,52.82,274.4,67.87,91.6,15.05,183.6,11.12,275.2-1.31,91.8-12.59,183-33.85,274.4-49.88,91.4-16.19,182.6-26.98,274-20.77,91.4,6.21,182.6,29.76,228.4,41.38l45.6,11.78V-8.52H-37.58v426.85Z" style="fill:#ffa62b;"/><path d="m-37.58,424.87l45.6-24.2c45.8-24.37,137-72.78,228.4-88.31s182.6,1.8,274,21.75c91.4,19.95,182.6,42.19,274.4,33.2,91.6-8.99,183.6-49.23,275.2-48.41,91.8.82,183,42.68,274.4,58.06,91.4,15.21,182.6,3.76,274-4.09,91.4-8.01,182.6-12.27,228.4-14.56l45.6-2.13V-8.52H-37.58v433.39Z" style="fill:#ff902d;"/><path d="m-37.58,290.77l45.6,10.3c45.8,10.47,137,31.07,228.4,31.73,91.4.49,182.6-19.13,274-27.8,91.4-8.83,182.6-6.54,274.4-1.47,91.6,5.23,183.6,13.41,275.2.65,91.8-12.92,183-46.61,274.4-48.25s182.6,28.78,274,36.96c91.4,8.18,182.6-5.89,228.4-13.08l45.6-7.03V-8.52H-37.58v299.28Z" style="fill:#ff7833;"/><path d="m-37.58,200.82l45.6,5.23c45.8,5.07,137,15.54,228.4,9.81,91.4-5.72,182.6-27.64,274-37.94,91.4-10.3,182.6-9.32,274.4,8.99,91.6,18.32,183.6,53.64,275.2,67.54,91.8,13.9,183,6.38,274.4-10.63,91.4-16.84,182.6-43.01,274-45.79,91.4-2.62,182.6,17.99,228.4,28.46l45.6,10.3V-8.52H-37.58v209.33Z" style="fill:#ff5f3c;"/><path d="m-37.58,137.04l45.6,8.18c45.8,8.18,137,24.53,228.4,26.66,91.4,2.29,182.6-9.81,274-18.81,91.4-8.99,182.6-14.88,274.4-7.52,91.6,7.36,183.6,27.97,275.2,33.53,91.8,5.4,183-4.42,274.4-7.36,91.4-3.11,182.6.82,274-.65,91.4-1.31,182.6-7.85,228.4-11.12l45.6-3.27V-8.52H-37.58v145.55Z" style="fill:#ff4347;"/><path d="m-37.58,63.44l45.6-4.42c45.8-4.25,137-13.08,228.4-3.27s182.6,38.27,274,40.89c91.4,2.78,182.6-20.12,274.4-33.69,91.6-13.74,183.6-17.99,275.2-10.96,91.8,7.03,183,25.68,274.4,33.2,91.4,7.69,182.6,4.42,274-3.27,91.4-7.52,182.6-19.63,228.4-25.51l45.6-6.05V-8.52H-37.58V63.44Z" style="fill:#ff1654;"/></g></g></svg>