<?xml version="1.0" encoding="utf-8"?>
<!-- Generator: Adobe Illustrator 27.2.0, SVG Export Plug-In . SVG Version: 6.00 Build 0)  -->
<svg version="1.1" id="Layer_1" xmlns="http://www.w3.org/2000/svg" xmlns:xlink="http://www.w3.org/1999/xlink" x="0px" y="0px"
	 viewBox="0 0 1920 1080" style="enable-background:new 0 0 1920 1080;" xml:space="preserve">
<style type="text/css">
	.st0{fill:#202C39;}
	.st1{clip-path:url(#SVGID_00000023996567511443796160000017031969090470118583_);}
	.st2{fill:#FFA62B;}
	.st3{fill:#FF902D;}
	.st4{fill:#FF7833;}
	.st5{fill:#FF5F3C;}
	.st6{fill:#FF4347;}
	.st7{fill:#FF1654;}
</style>
<rect class="st0" width="1920" height="1080"/>
<g>
	<defs>
		<rect id="SVGID_1_" width="1920" height="768.9"/>
	</defs>
	<clipPath id="SVGID_00000132787750121543333290000000919598738452062890_">
		<use xlink:href="#SVGID_1_"  style="overflow:visible;"/>
	</clipPath>
	<g style="clip-path:url(#SVGID_00000132787750121543333290000000919598738452062890_);">
		<g>
			<g>
				<g>
					<path class="st2" d="M-32.1,306.9l46.6-9.2c46.8-9,139.9-27.3,233.2-34.8c93.3-7.5,186.5-4.4,279.8,9.5s186.5,38.4,280.2,49.3
						c93.5,10.9,187.5,8.1,281-1c93.7-9.2,186.9-24.6,280.2-36.3c93.3-11.8,186.4-19.6,279.8-15.1c93.3,4.5,186.4,21.6,233.2,30.1
						l46.6,8.6V-3.4H-32.1V306.9L-32.1,306.9z"/>
					<path class="st3" d="M-32.1,311.6L14.4,294c46.8-17.7,139.9-52.9,233.2-64.2s186.5,1.3,279.8,15.8s186.5,30.7,280.2,24.1
						c93.5-6.5,187.5-35.8,281-35.2c93.7,0.6,186.9,31,280.2,42.2c93.3,11.1,186.4,2.7,279.8-3c93.3-5.8,186.4-8.9,233.2-10.6
						l46.6-1.5V-3.4H-32.1V311.6L-32.1,311.6z"/>
					<path class="st4" d="M-32.1,214.1l46.6,7.5c46.8,7.6,139.9,22.6,233.2,23.1c93.3,0.4,186.5-13.9,279.8-20.2
						c93.3-6.4,186.5-4.8,280.2-1.1c93.5,3.8,187.5,9.7,281,0.5c93.7-9.4,186.9-33.9,280.2-35.1s186.4,20.9,279.8,26.9
						c93.3,5.9,186.4-4.3,233.2-9.5l46.6-5.1V-3.4H-32.1V214.1z"/>
					<path class="st5" d="M-32.1,148.7l46.6,3.8c46.8,3.7,139.9,11.3,233.2,7.1c93.3-4.2,186.5-20.1,279.8-27.6
						c93.3-7.5,186.5-6.8,280.2,6.5c93.5,13.3,187.5,39,281,49.1c93.7,10.1,186.9,4.6,280.2-7.7c93.3-12.2,186.4-31.3,279.8-33.3
						c93.3-1.9,186.4,13.1,233.2,20.7l46.6,7.5V-3.4H-32.1V148.7z"/>
					<path class="st6" d="M-32.1,102.4l46.6,5.9c46.8,5.9,139.9,17.8,233.2,19.4c93.3,1.7,186.5-7.1,279.8-13.7
						s186.5-10.8,280.2-5.5c93.5,5.3,187.5,20.3,281,24.4c93.7,3.9,186.9-3.2,280.2-5.3c93.3-2.3,186.4,0.6,279.8-0.5
						c93.3-1,186.4-5.7,233.2-8.1l46.6-2.4V-3.4H-32.1V102.4L-32.1,102.4z"/>
					<path class="st7" d="M-32.1,48.9l46.6-3.2c46.8-3.1,139.9-9.5,233.2-2.4C341,50.4,434.1,71.1,527.4,73
						c93.3,2,186.5-14.6,280.2-24.5c93.5-10,187.5-13.1,281-8c93.7,5.1,186.9,18.7,280.2,24.1c93.3,5.6,186.4,3.2,279.8-2.4
						c93.3-5.5,186.4-14.3,233.2-18.5l46.6-4.4V-3.4H-32.1V48.9z"/>
				</g>
			</g>
		</g>
	</g>
</g>
</svg>
