<?xml version="1.0" encoding="utf-8"?>
<!-- Generator: Adobe Illustrator 27.2.0, SVG Export Plug-In . SVG Version: 6.00 Build 0)  -->
<svg version="1.1" id="Layer_1" xmlns="http://www.w3.org/2000/svg" xmlns:xlink="http://www.w3.org/1999/xlink" x="0px" y="0px"
	 viewBox="0 0 400 400" style="enable-background:new 0 0 400 400;" xml:space="preserve">
<style type="text/css">
	.st0{fill:#F4F4F9;}
	.st1{fill:#231F20;}
	.st2{font-family:'Roboto-Bold';}
	.st3{font-size:33px;}
	.st4{fill:#1E1E1E;}
	.st5{clip-path:url(#SVGID_00000168097956301758434460000001345570063299430050_);}
	.st6{fill:#1ABCFE;}
	.st7{fill:#0ACF83;}
	.st8{fill:#FF7262;}
	.st9{fill:#F24E1E;}
	.st10{fill:#A259FF;}
	.st11{fill:url(#SVGID_00000003813056092991754670000014015181972776151691_);}
	.st12{fill:#35C1F1;}
	.st13{fill:#FFFFFF;}
	.st14{fill:#D6E0E9;}
	.st15{opacity:5.000000e-02;enable-background:new    ;}
	.st16{opacity:7.000000e-02;enable-background:new    ;}
	.st17{fill:url(#SVGID_00000021841340955340895770000003382737758113436089_);}
	.st18{fill:url(#SVGID_00000054963915074707670580000012265669281277506718_);stroke:#FFFFFF;stroke-width:0.2;}
	.st19{fill:url(#SVGID_00000036962633416897276900000009891465684593971330_);}
	.st20{fill:#F09601;}
</style>
<g id="Backgrounds">
	<rect class="st0" width="400" height="400"/>
	<rect class="st0" width="400" height="400"/>
</g>
<g id="Content">
	<text transform="matrix(1 0 0 1 65.52 54.5)" class="st1 st2 st3">WEB DEVE</text>
	<text transform="matrix(1 0 0 1 202.66 54.5)" class="st1 st2 st3">L</text>
	<text transform="matrix(1 0 0 1 217.42 54.5)" class="st1 st2 st3">OPMEN</text>
	<text transform="matrix(1 0 0 1 317.53 54.5)" class="st1 st2 st3">T</text>
	
		<image style="overflow:visible;enable-background:new    ;" width="2048" height="2048" xlink:href="../../../Downloads/WordPress_blue_logo.svg.png"  transform="matrix(5.000000e-02 0 0 5.000000e-02 42.46 72.56)">
	</image>
	<g>
		<rect x="151" y="72.6" class="st4" width="93.5" height="93.5"/>
		<g>
			<defs>
				<rect id="SVGID_1_" x="178" y="90.2" width="39.5" height="59.2"/>
			</defs>
			<clipPath id="SVGID_00000160155895190230005070000009371535316168924328_">
				<use xlink:href="#SVGID_1_"  style="overflow:visible;"/>
			</clipPath>
			<g style="clip-path:url(#SVGID_00000160155895190230005070000009371535316168924328_);">
				<g>
					<path class="st6" d="M197.7,119.8c0-2.6,1-5.1,2.9-7c1.9-1.8,4.4-2.9,7-2.9s5.1,1,7,2.9c1.9,1.8,2.9,4.4,2.9,7s-1,5.1-2.9,7
						c-1.9,1.8-4.4,2.9-7,2.9s-5.1-1-7-2.9C198.8,124.9,197.7,122.4,197.7,119.8z"/>
					<path class="st7" d="M178,139.6c0-2.6,1-5.1,2.9-7c1.9-1.9,4.4-2.9,7-2.9h9.9v9.9c0,2.6-1,5.1-2.9,7c-1.9,1.9-4.4,2.9-7,2.9
						s-5.1-1-7-2.9C179,144.7,178,142.2,178,139.6L178,139.6z"/>
					<path class="st8" d="M197.7,90.2v19.7h9.9c2.6,0,5.1-1,7-2.9c1.9-1.8,2.9-4.4,2.9-7s-1-5.1-2.9-7c-1.9-1.8-4.4-2.9-7-2.9
						L197.7,90.2L197.7,90.2z"/>
					<path class="st9" d="M178,100.1c0,2.6,1,5.1,2.9,7s4.4,2.9,7,2.9h9.9V90.2h-9.9c-2.6,0-5.1,1-7,2.9C179,95,178,97.5,178,100.1
						L178,100.1L178,100.1z"/>
					<path class="st10" d="M178,119.8c0,2.6,1,5.1,2.9,7c1.9,1.8,4.4,2.9,7,2.9h9.9V110h-9.9c-2.6,0-5.1,1-7,2.9
						C179,114.7,178,117.2,178,119.8L178,119.8L178,119.8z"/>
				</g>
			</g>
		</g>
	</g>
	
		<image style="overflow:visible;enable-background:new    ;" width="800" height="800" xlink:href="../../../Downloads/Elementor-Logo-Symbol-Red.png"  transform="matrix(0.12 0 0 0.12 41.18 171.4)">
	</image>
	
		<image style="overflow:visible;enable-background:new    ;" width="2000" height="2000" xlink:href="../../../Downloads/divi-divi-logo.png"  transform="matrix(5.000000e-02 0 0 5.000000e-02 262.85 73.38)">
	</image>
	<g>
		
			<linearGradient id="SVGID_00000122000116125759616620000014995540333531375801_" gradientUnits="userSpaceOnUse" x1="290.3825" y1="1416.3827" x2="329.5025" y2="1523.8727" gradientTransform="matrix(1 0 0 1 0 -1264.16)">
			<stop  offset="0" style="stop-color:#2AA4F4"/>
			<stop  offset="1" style="stop-color:#007AD9"/>
		</linearGradient>
		<path style="fill:url(#SVGID_00000122000116125759616620000014995540333531375801_);" d="M268,176.5l6.4,73c0.3,3,2.4,5.6,5.3,6.4
			l26.1,7.4c2.2,0.6,4.5,0.6,6.7,0l26.1-7.4c2.9-0.8,5-3.4,5.3-6.4l6.4-73c0.2-2.9-2-5.3-4.9-5.3h-72.6
			C270,171.2,267.7,173.7,268,176.5L268,176.5z"/>
		<path class="st12" d="M309.2,178.6v78.2l24.2-6.9c2-0.6,3.4-2.3,3.5-4.3l5.6-64.3c0.1-1.4-1-2.7-2.4-2.7L309.2,178.6L309.2,178.6z
			"/>
		<path class="st13" d="M331.5,190.8h-22.3v9.8h12l-0.7,9.8h-11.3v9.8H320l-0.7,11l-10,3.4V245l19.4-6.4l1.7-28.2l0,0L331.5,190.8
			L331.5,190.8z"/>
		<path class="st14" d="M309.2,190.8v9.8h-21.8l-0.7-9.8H309.2z M297.9,210.4l0.5,9.8h10.8v-9.8H297.9z M298.9,225.1h-9.8l0.7,13.5
			l19.4,6.4v-10.3l-10-3.4L298.9,225.1z"/>
		<path class="st15" d="M331.5,190.8l-1.2,19.6l-1.7,28.2l-19.4,6.4l-19.4-6.4l-0.7-13.5h9.8l0.2,6.1l10,3.4l10-3.4l0.7-11h-21.6
			l-0.5-9.8h22.5l0.7-9.8h-33.8l-0.7-9.8L331.5,190.8 M334.1,188.4H284l0.2,2.6l0.7,9.8l0.2,2.3h33.5l-0.4,4.9h-22.9l0.1,2.6
			l0.5,9.8l0.1,2.3h-9.6l0.1,2.6l0.7,13.5l0.1,1.7l1.6,0.5l19.4,6.4l0.8,0.2l0.8-0.2l19.4-6.4l1.6-0.5l0.1-1.7l1.7-28.2l1.2-19.6
			L334.1,188.4L334.1,188.4L334.1,188.4z M301.2,222.7h16.1l-0.5,6.8l-7.7,2.6l-7.7-2.6l-0.2-4.4L301.2,222.7L301.2,222.7z"/>
		<path class="st16" d="M331.5,190.8l-1.2,19.6l-1.7,28.2l-19.4,6.4l-19.4-6.4l-0.7-13.5h9.8l0.2,6.1l10,3.4l10-3.4l0.7-11h-21.6
			l-0.5-9.8h22.5l0.7-9.8h-33.8l-0.7-9.8L331.5,190.8 M332.8,189.6h-47.5l0.1,1.3l0.7,9.8l0.1,1.1h33.6l-0.5,7.4h-22.7l0.1,1.3
			l0.5,9.8l0.1,1.2h21.4l-0.6,8.9l-8.9,3l-8.9-3l-0.2-5.3l0-1.2h-12.3l0.1,1.3l0.7,13.5l0,0.8l0.8,0.3l19.4,6.4l0.4,0.1l0.4-0.1
			l19.4-6.4l0.8-0.3l0-0.8l1.7-28.2l1.2-19.6L332.8,189.6L332.8,189.6L332.8,189.6z"/>
	</g>
	
		<linearGradient id="SVGID_00000106846955908395183550000011969628401222909825_" gradientUnits="userSpaceOnUse" x1="158.608" y1="1450.2626" x2="247.778" y2="1521.0425" gradientTransform="matrix(1 0 0 1 0 -1264.16)">
		<stop  offset="0" style="stop-color:#9013FE"/>
		<stop  offset="1" style="stop-color:#6610F2"/>
	</linearGradient>
	<path style="fill:url(#SVGID_00000106846955908395183550000011969628401222909825_);" d="M159.6,188.4c-0.2-5.5,4.1-10.6,9.9-10.6
		h59.7c5.8,0,10.1,5.1,9.9,10.6c-0.2,5.3,0.1,12.2,1.8,17.8c1.7,5.6,4.7,9.2,9.5,9.6v5.2c-4.8,0.5-7.7,4-9.5,9.6
		c-1.7,5.6-2,12.5-1.8,17.8c0.2,5.5-4.1,10.6-9.9,10.6h-59.7c-5.8,0-10.1-5.1-9.9-10.6c0.2-5.3-0.1-12.2-1.8-17.8
		c-1.7-5.6-4.7-9.2-9.5-9.6v-5.2c4.8-0.5,7.7-4,9.5-9.6C159.5,200.6,159.8,193.7,159.6,188.4L159.6,188.4z"/>
	
		<linearGradient id="SVGID_00000094605394900554458320000014555400978813620909_" gradientUnits="userSpaceOnUse" x1="186.0373" y1="1464.3357" x2="205.9673" y2="1498.0457" gradientTransform="matrix(1 0 0 1 0 -1264.16)">
		<stop  offset="0" style="stop-color:#FFFFFF"/>
		<stop  offset="1" style="stop-color:#F1E5FC"/>
	</linearGradient>
	<path style="fill:url(#SVGID_00000094605394900554458320000014555400978813620909_);stroke:#FFFFFF;stroke-width:0.2;" d="
		M201.6,240.1c9.4,0,15.1-4.6,15.1-12.2c0-5.8-4.1-9.9-10.1-10.6V217c4.4-0.7,7.9-4.8,7.9-9.4c0-6.5-5.2-10.8-13-10.8h-17.7v43.2
		H201.6z M190.7,202.3h9.1c5,0,7.8,2.2,7.8,6.2c0,4.3-3.3,6.7-9.2,6.7h-7.7L190.7,202.3L190.7,202.3z M190.7,234.6v-14.2h9.1
		c6.5,0,9.9,2.4,9.9,7.1s-3.3,7.2-9.5,7.2L190.7,234.6L190.7,234.6z"/>
	
		<linearGradient id="SVGID_00000017507529045560785940000009522572926074712244_" gradientUnits="userSpaceOnUse" x1="73.7833" y1="1529.3389" x2="113.5633" y2="1638.6388" gradientTransform="matrix(1 0 0 1 0 -1264.16)">
		<stop  offset="0" style="stop-color:#F09701"/>
		<stop  offset="1" style="stop-color:#E36001"/>
	</linearGradient>
	<path style="fill:url(#SVGID_00000017507529045560785940000009522572926074712244_);" d="M46.3,277l6.5,74.2
		c0.3,3.1,2.4,5.7,5.4,6.5l26.6,7.6c2.2,0.6,4.6,0.6,6.8,0l26.5-7.6c3-0.9,5.1-3.5,5.4-6.5l6.5-74.2c0.3-2.9-2-5.4-5-5.4H51.3
		C48.3,271.6,46,274.1,46.3,277z"/>
	<path class="st20" d="M88.2,279.1v79.6l24.6-7c2-0.6,3.4-2.3,3.6-4.4l5.7-65.4c0.1-1.5-1-2.7-2.5-2.7L88.2,279.1L88.2,279.1z"/>
	<path class="st13" d="M88.2,321.5v-10h21.4l-1.8,28.7l-19.7,6.5v-10.5l10.2-3.5l0.8-11.2L88.2,321.5L88.2,321.5z M110.4,301.6
		l0.8-10H88.2v10H110.4z"/>
	<path class="st14" d="M88.2,336.2v10.5l-19.7-6.5l-1-13.7h10l0.5,6.2L88.2,336.2L88.2,336.2z M76,301.5h12.2v-10H65.5l1.8,29.9
		h20.9v-10H76.8L76,301.5L76,301.5z"/>
	<path class="st15" d="M111.2,291.6l-0.8,10H76l0.8,10h32.9l-1.8,28.7l-19.7,6.5l-19.7-6.5l-1-13.7h10l0.5,6.2l10.2,3.5l10.2-3.5
		l0.8-11.2H67.3l-1.8-29.9L111.2,291.6 M113.9,289.1h-51l0.2,2.6l1.8,29.9l0.1,2.4h-0.1l0.2,2.7l1,13.7l0.1,1.7l1.6,0.5l19.7,6.5
		l0.8,0.3l0.8-0.3l19.7-6.5l1.6-0.5l0.1-1.7l1.8-28.7l0.2-2.6H79.1l-0.4-5h34l0.2-2.3l0.8-10L113.9,289.1L113.9,289.1L113.9,289.1z
		 M79.8,324h16.7l-0.5,6.9l-7.8,2.7l-7.9-2.7l-0.4-4.6L79.8,324L79.8,324L79.8,324z"/>
	<path class="st16" d="M111.2,291.6l-0.8,10H76l0.8,10h32.9l-1.8,28.7l-19.7,6.5l-19.7-6.5l-1-13.7h10l0.5,6.2l10.2,3.5l10.2-3.5
		l0.8-11.2H67.3l-1.8-29.9L111.2,291.6 M112.5,290.3H64.2l0.1,1.3l1.8,29.9l0.1,1.2h31.8l-0.6,9.1l-9,3.1l-9.1-3.1l-0.4-5.4
		l-0.1-1.1H66.2l0.1,1.3l1,13.7l0.1,0.8l0.8,0.3l19.7,6.5l0.4,0.1l0.4-0.1l19.7-6.5l0.8-0.3l0.1-0.9l1.8-28.7l0.1-1.3H77.9l-0.6-7.5
		h34.2l0.1-1.1l0.8-10L112.5,290.3L112.5,290.3L112.5,290.3z"/>
	<g id="_0RJRB9">
		
			<image style="overflow:visible;enable-background:new    ;" width="1051" height="1046" id="_0RJRB9-2" xlink:href="643FFC2E5E52FFD.png"  transform="matrix(9.008564e-02 0 0 9.008564e-02 151.88 271.6552)">
		</image>
	</g>
</g>
</svg>
