<?xml version="1.0" encoding="utf-8"?>
<!-- Generator: Adobe Illustrator 27.2.0, SVG Export Plug-In . SVG Version: 6.00 Build 0)  -->
<svg version="1.1" id="Layer_1" xmlns="http://www.w3.org/2000/svg" xmlns:xlink="http://www.w3.org/1999/xlink" x="0px" y="0px"
	 viewBox="0 0 739 839" style="enable-background:new 0 0 739 839;" xml:space="preserve">
<style type="text/css">
	.st0{clip-path:url(#SVGID_00000012465555062835212940000002391017063762220213_);}
	.st1{fill:#A4A4A4;}
	.st2{clip-path:url(#SVGID_00000098194117981011304650000005091170353139441304_);}
</style>
<g>
	<defs>
		<rect id="SVGID_1_" width="739" height="839"/>
	</defs>
	<clipPath id="SVGID_00000144331879486887805930000011037923217766221997_">
		<use xlink:href="#SVGID_1_"  style="overflow:visible;"/>
	</clipPath>
	<g style="clip-path:url(#SVGID_00000144331879486887805930000011037923217766221997_);">
		<circle class="st1" cx="292" cy="547" r="292"/>
		<g>
			<defs>
				<rect id="SVGID_00000041290309424194123970000014108683610789084836_" x="84.2" y="382.8" width="414.1" height="415.5"/>
			</defs>
			<clipPath id="SVGID_00000182519383979408474150000007197971928888875705_">
				<use xlink:href="#SVGID_00000041290309424194123970000014108683610789084836_"  style="overflow:visible;"/>
			</clipPath>
			<g style="clip-path:url(#SVGID_00000182519383979408474150000007197971928888875705_);">
				<path d="M291.3,564.5c-50,0-90.6-40.8-90.6-90.9s40.6-90.9,90.6-90.9s90.6,40.8,90.6,90.9S341.3,564.5,291.3,564.5z
					 M291.3,408.7c-35.7,0-64.7,29.1-64.7,64.9s29,64.9,64.7,64.9s64.7-29.1,64.7-64.9S327,408.7,291.3,408.7z"/>
				<path d="M433.7,798.3c-7.1,0-12.9-5.8-12.9-13v-79.4c0-49.7-40.3-90.2-89.8-90.2h-79.1c-49.5,0-89.8,40.4-89.8,90.2v79.4
					c0,7.2-5.8,13-12.9,13c-7.1,0-12.9-5.8-12.9-13v-79.4c0-64,51.9-116.1,115.7-116.1h79.1c63.8,0,115.7,52.1,115.7,116.1v79.4
					C446.6,792.5,440.8,798.3,433.7,798.3z"/>
			</g>
		</g>
		<path d="M585-0.3H445c-40.8,0-80,16.9-108.9,47.1C307.2,77,291,117.9,291,160.5V219c0,42.6,16.2,83.6,45.1,113.7
			c28.9,30.2,68.1,47.1,108.9,47.1h14v73.1c0,2.9,0.8,5.7,2.3,8.2c1.5,2.4,3.7,4.3,6.3,5.4c2.6,1.1,5.4,1.4,8.1,0.8
			c2.7-0.6,5.2-2,7.2-4l79.8-83.5H585c40.8,0,80-16.9,108.9-47.1C722.8,302.5,739,261.6,739,219v-58.5c0-42.7-16.2-83.6-45.1-113.7
			C665,16.6,625.8-0.3,585-0.3z M711,219c0,34.9-13.3,68.4-36.9,93c-23.6,24.7-55.7,38.5-89.1,38.5h-28c-1.8,0-3.7,0.4-5.4,1.1
			c-1.7,0.7-3.3,1.8-4.6,3.2L487,417.7v-52.5c0-3.9-1.5-7.6-4.1-10.3c-2.6-2.7-6.2-4.3-9.9-4.3h-28c-33.4,0-65.5-13.9-89.1-38.5
			c-23.6-24.7-36.9-58.1-36.9-93v-58.5c0-34.9,13.3-68.4,36.9-93c23.6-24.7,55.7-38.5,89.1-38.5h140c33.4,0,65.5,13.9,89.1,38.5
			c23.6,24.7,36.9,58.1,36.9,93V219z"/>
		<path d="M585,233.6H445V219h-28v14.6c0,7.8,3,15.2,8.2,20.7c5.3,5.5,12.4,8.6,19.8,8.6h140c7.4,0,14.5-3.1,19.8-8.6
			c5.3-5.5,8.2-12.9,8.2-20.7V219h-28V233.6z"/>
		<path d="M487,131.3h-28v29.2h28V131.3z"/>
		<path d="M571,131.3h-28v29.2h28V131.3z"/>
	</g>
</g>
</svg>
