<svg width="739" height="839" viewBox="0 0 739 839" fill="none" xmlns="http://www.w3.org/2000/svg">
<g clip-path="url(#clip0_110_6)">
<circle cx="292" cy="547" r="292" fill="#A4A4A4"/>
<g clip-path="url(#clip1_110_6)">
<path d="M291.298 564.548C241.345 564.548 200.706 523.765 200.706 473.649C200.706 423.533 241.345 382.75 291.298 382.75C341.251 382.75 381.89 423.533 381.89 473.649C381.89 523.765 341.251 564.548 291.298 564.548ZM291.298 408.721C255.62 408.721 226.59 437.85 226.59 473.649C226.59 509.448 255.62 538.577 291.298 538.577C326.976 538.577 356.007 509.448 356.007 473.649C356.007 437.85 326.976 408.721 291.298 408.721Z" fill="black"/>
<path d="M433.657 798.289C426.51 798.289 420.715 792.481 420.715 785.303V705.893C420.715 656.183 380.411 615.742 330.869 615.742H251.727C202.185 615.742 161.881 656.183 161.881 705.893V785.303C161.881 792.481 156.086 798.289 148.939 798.289C141.792 798.289 135.998 792.481 135.998 785.303V705.893C135.998 641.866 187.916 589.771 251.727 589.771H330.869C394.68 589.771 446.599 641.866 446.599 705.893V785.303C446.599 792.481 440.804 798.289 433.657 798.289Z" fill="black"/>
</g>
<path d="M585 -0.295898H445C404.157 -0.295898 364.986 16.6465 336.106 46.8041C307.225 76.9617 291 117.864 291 160.514V218.99C291 261.639 307.225 302.542 336.106 332.699C364.986 362.857 404.157 379.799 445 379.799H459V452.895C458.984 455.798 459.796 458.641 461.333 461.061C462.871 463.481 465.063 465.368 467.631 466.481C470.199 467.595 473.027 467.884 475.754 467.313C478.48 466.742 480.982 465.336 482.94 463.274L562.74 379.799H585C625.843 379.799 665.014 362.857 693.894 332.699C722.775 302.542 739 261.639 739 218.99V160.514C739 117.864 722.775 76.9617 693.894 46.8041C665.014 16.6465 625.843 -0.295898 585 -0.295898ZM711 218.99C711 253.885 697.725 287.35 674.095 312.025C650.466 336.699 618.417 350.561 585 350.561H557C555.158 350.55 553.331 350.919 551.625 351.646C549.92 352.374 548.368 353.446 547.06 354.801L487 417.663V365.18C487 361.303 485.525 357.585 482.899 354.843C480.274 352.101 476.713 350.561 473 350.561H445C411.583 350.561 379.534 336.699 355.905 312.025C332.275 287.35 319 253.885 319 218.99V160.514C319 125.619 332.275 92.153 355.905 67.4786C379.534 42.8041 411.583 28.9422 445 28.9422H585C618.417 28.9422 650.466 42.8041 674.095 67.4786C697.725 92.153 711 125.619 711 160.514V218.99Z" fill="black"/>
<path d="M585 233.609H445V218.99H417V233.609C417 241.363 419.95 248.8 425.201 254.283C430.452 259.767 437.574 262.847 445 262.847H585C592.426 262.847 599.548 259.767 604.799 254.283C610.05 248.8 613 241.363 613 233.609V218.99H585V233.609Z" fill="black"/>
<path d="M487 131.276H459V160.514H487V131.276Z" fill="black"/>
<path d="M571 131.276H543V160.514H571V131.276Z" fill="black"/>
<path fill-rule="evenodd" clip-rule="evenodd" d="M57.7944 839.485H48.5083C46.259 839.485 44.3844 837.809 43.9563 835.581C43.9246 835.581 43.8955 835.586 43.8637 835.586V817.944C43.8637 815.843 42.2004 814.143 40.149 814.143C38.0974 814.143 36.4341 815.843 36.4341 817.944V834.561V834.613C36.4341 835.802 36.0106 836.873 35.3384 837.721C34.9693 838.308 34.339 838.694 33.6197 838.694C32.4807 838.694 31.5582 837.726 31.5582 836.53C31.5582 835.898 31.8203 835.335 32.2348 834.939C32.535 834.591 32.72 834.141 32.72 833.638V830.851V826.838V817.762C32.72 813.61 36.0458 810.243 40.1489 810.243C44.2518 810.243 47.5794 813.61 47.5794 817.762V830.851C47.5794 830.991 47.5668 831.112 47.5585 831.241C47.5649 831.239 47.573 831.239 47.5794 831.236V833.638C47.5794 834.714 48.4102 835.586 49.4369 835.586H56.8657C57.8924 835.586 58.7231 834.714 58.7231 833.638V816.092C58.7231 815.946 58.7068 815.806 58.6777 815.669C58.2007 807.202 51.7597 800.494 43.8637 800.494C40.5861 800.494 37.5678 801.661 35.1154 803.62C35.1064 803.615 35.0964 803.617 35.0774 803.632C34.828 803.843 34.5133 803.968 34.1705 803.968C33.3678 803.968 32.7203 803.285 32.7203 802.443C32.7203 802.339 32.7144 802.284 32.7039 802.269C32.6182 801.276 31.8309 800.494 30.8628 800.494H25.2897C23.2386 800.494 21.5745 802.241 21.5745 804.394V833.638C21.5745 833.814 21.604 833.982 21.6452 834.143C21.6017 834.283 21.5745 834.438 21.5745 834.613C21.5745 837.304 19.4962 839.485 16.9304 839.485H16.5908H7.64394C5.08056 839.485 3 837.304 3 834.613V801.469C3 798.778 5.08056 796.597 7.64394 796.597H12.288C15.3639 796.597 17.8589 793.978 17.8589 790.747C17.8589 787.516 15.3639 784.897 12.288 784.897C9.21023 784.897 6.71534 787.516 6.71534 790.747C6.71534 791.825 5.8846 792.696 4.85744 792.696C3.83306 792.696 3 791.825 3 790.747C3 785.363 7.1588 781 12.288 781C17.4177 781 21.5743 785.363 21.5743 790.747C21.5743 791.241 21.5284 791.722 21.46 792.197C21.4451 792.288 21.4369 792.382 21.4201 792.474C21.3389 792.948 21.2288 793.414 21.0827 793.862C21.0768 793.884 21.0664 793.904 21.0601 793.925C20.7395 794.894 20.2833 795.79 19.7065 796.595C18.0132 798.957 15.3246 800.494 12.2881 800.494H8.57266C7.54596 800.494 6.71522 801.369 6.71522 802.443V833.638C6.71522 834.714 7.54596 835.586 8.57266 835.586H17.9527C17.8924 835.271 17.8588 834.947 17.8588 834.613V804.394C17.8588 800.087 21.1869 796.597 25.2894 796.597H31.7912C32.9385 796.597 33.9815 797.04 34.7905 797.768C34.8005 797.775 34.8105 797.764 34.8214 797.772C35.1461 798.065 35.5669 798.241 36.0277 798.241C36.2817 798.241 36.5229 798.188 36.7414 798.091C36.8076 798.061 36.8475 798.065 36.8856 798.07C39.0423 797.143 41.3875 796.597 43.8635 796.597C53.4918 796.597 61.4075 804.286 62.3443 814.131C62.4069 814.448 62.4378 814.78 62.4378 815.117V834.613C62.438 837.304 60.3602 839.485 57.7944 839.485ZM27.1474 835.586C28.1718 835.586 29.0048 836.46 29.0048 837.536C29.0048 838.613 28.1719 839.485 27.1474 839.485C26.1207 839.485 25.2895 838.613 25.2895 837.536C25.2895 836.46 26.1208 835.586 27.1474 835.586Z" fill="black"/>
</g>
<defs>
<clipPath id="clip0_110_6">
<rect width="739" height="839" fill="white"/>
</clipPath>
<clipPath id="clip1_110_6">
<rect width="414.135" height="415.539" fill="white" transform="translate(84.2308 382.75)"/>
</clipPath>
</defs>
</svg>
