<svg width="448" height="468" viewBox="0 0 448 468" fill="none" xmlns="http://www.w3.org/2000/svg">
<path d="M294 -0.295898H154C113.157 -0.295898 73.9862 16.6465 45.1056 46.8041C16.225 76.9617 0 117.864 0 160.514L0 218.99C0 261.639 16.225 302.542 45.1056 332.699C73.9862 362.857 113.157 379.799 154 379.799H168V452.895C167.984 455.798 168.796 458.641 170.333 461.061C171.871 463.481 174.063 465.368 176.631 466.481C179.199 467.595 182.027 467.884 184.754 467.313C187.48 466.742 189.982 465.336 191.94 463.274L271.74 379.799H294C334.843 379.799 374.014 362.857 402.894 332.699C431.775 302.542 448 261.639 448 218.99V160.514C448 117.864 431.775 76.9617 402.894 46.8041C374.014 16.6465 334.843 -0.295898 294 -0.295898ZM420 218.99C420 253.885 406.725 287.35 383.095 312.025C359.466 336.699 327.417 350.561 294 350.561H266C264.158 350.55 262.331 350.919 260.625 351.646C258.92 352.374 257.368 353.446 256.06 354.801L196 417.663V365.18C196 361.303 194.525 357.585 191.899 354.843C189.274 352.101 185.713 350.561 182 350.561H154C120.583 350.561 88.5341 336.699 64.9045 312.025C41.275 287.35 28 253.885 28 218.99V160.514C28 125.619 41.275 92.153 64.9045 67.4786C88.5341 42.8041 120.583 28.9422 154 28.9422H294C327.417 28.9422 359.466 42.8041 383.095 67.4786C406.725 92.153 420 125.619 420 160.514V218.99Z" fill="black"/>
<path d="M294 233.609H154V218.99H126V233.609C126 241.363 128.95 248.8 134.201 254.283C139.452 259.767 146.574 262.847 154 262.847H294C301.426 262.847 308.548 259.767 313.799 254.283C319.05 248.8 322 241.363 322 233.609V218.99H294V233.609Z" fill="black"/>
<path d="M196 131.276H168V160.514H196V131.276Z" fill="black"/>
<path d="M280 131.276H252V160.514H280V131.276Z" fill="black"/>
</svg>
