<svg width="448" height="469" viewBox="0 0 448 469" fill="none" xmlns="http://www.w3.org/2000/svg">
<path d="M294 0.704102H154C113.157 0.704102 73.9862 17.6465 45.1056 47.8041C16.225 77.9617 0 118.864 0 161.514L0 219.99C0 262.639 16.225 303.542 45.1056 333.699C73.9862 363.857 113.157 380.799 154 380.799H168V453.895C167.984 456.798 168.796 459.641 170.333 462.061C171.871 464.481 174.063 466.368 176.631 467.481C179.199 468.595 182.027 468.884 184.754 468.313C187.48 467.742 189.982 466.336 191.94 464.274L271.74 380.799H294C334.843 380.799 374.014 363.857 402.894 333.699C431.775 303.542 448 262.639 448 219.99V161.514C448 118.864 431.775 77.9617 402.894 47.8041C374.014 17.6465 334.843 0.704102 294 0.704102ZM420 219.99C420 254.885 406.725 288.35 383.095 313.025C359.466 337.699 327.417 351.561 294 351.561H266C264.158 351.55 262.331 351.919 260.625 352.646C258.92 353.374 257.368 354.446 256.06 355.801L196 418.663V366.18C196 362.303 194.525 358.585 191.899 355.843C189.274 353.101 185.713 351.561 182 351.561H154C120.583 351.561 88.5341 337.699 64.9045 313.025C41.275 288.35 28 254.885 28 219.99V161.514C28 126.619 41.275 93.153 64.9045 68.4786C88.5341 43.8041 120.583 29.9422 154 29.9422H294C327.417 29.9422 359.466 43.8041 383.095 68.4786C406.725 93.153 420 126.619 420 161.514V219.99Z" fill="black"/>
<path d="M294 234.609H154V219.99H126V234.609C126 242.363 128.95 249.8 134.201 255.283C139.452 260.767 146.574 263.847 154 263.847H294C301.426 263.847 308.548 260.767 313.799 255.283C319.05 249.8 322 242.363 322 234.609V219.99H294V234.609Z" fill="black"/>
<path d="M196 132.276H168V161.514H196V132.276Z" fill="black"/>
<path d="M280 132.276H252V161.514H280V132.276Z" fill="black"/>
</svg>
