<svg width="60" height="58" viewBox="0 0 60 58" fill="none" xmlns="http://www.w3.org/2000/svg">
<path fill-rule="evenodd" clip-rule="evenodd" d="M54.7944 58.4852H45.5083C43.259 58.4852 41.3844 56.8089 40.9563 54.5813C40.9246 54.5813 40.8955 54.5861 40.8637 54.5861V36.9438C40.8637 34.8429 39.2004 33.1427 37.149 33.1427C35.0974 33.1427 33.4341 34.8429 33.4341 36.9438V53.5609V53.6133C33.4341 54.8022 33.0106 55.8731 32.3384 56.7213C31.9693 57.3077 31.339 57.6942 30.6197 57.6942C29.4807 57.6942 28.5582 56.726 28.5582 55.5304C28.5582 54.8983 28.8203 54.3349 29.2348 53.9389C29.535 53.5914 29.72 53.1411 29.72 52.6384V49.8512V45.8378V36.762C29.72 32.6097 33.0458 29.2426 37.1489 29.2426C41.2518 29.2426 44.5794 32.6097 44.5794 36.762V49.8512C44.5794 49.9911 44.5668 50.1121 44.5585 50.2405C44.5649 50.2386 44.573 50.2386 44.5794 50.2358V52.6384C44.5794 53.7142 45.4102 54.5861 46.4369 54.5861H53.8657C54.8924 54.5861 55.7231 53.7142 55.7231 52.6384V35.0924C55.7231 34.9458 55.7068 34.8058 55.6777 34.6686C55.2007 26.2021 48.7597 19.4939 40.8637 19.4939C37.5861 19.4939 34.5678 20.6609 32.1154 22.62C32.1064 22.6153 32.0964 22.6172 32.0774 22.6324C31.828 22.8429 31.5133 22.9675 31.1705 22.9675C30.3678 22.9675 29.7203 22.2849 29.7203 21.4435C29.7203 21.3388 29.7144 21.2845 29.7039 21.2693C29.6182 20.2763 28.8309 19.4939 27.8628 19.4939H22.2897C20.2386 19.4939 18.5745 21.2406 18.5745 23.394V52.6384C18.5745 52.8136 18.604 52.9821 18.6452 53.1431C18.6017 53.283 18.5745 53.4382 18.5745 53.6133C18.5745 56.3043 16.4962 58.4852 13.9304 58.4852H13.5908H4.64394C2.08056 58.4852 0 56.3043 0 53.6133V20.4686C0 17.7776 2.08056 15.5967 4.64394 15.5967H9.288C12.3639 15.5967 14.8589 12.9779 14.8589 9.74693C14.8589 6.51611 12.3639 3.89731 9.288 3.89731C6.21023 3.89731 3.71534 6.51611 3.71534 9.74693C3.71534 10.8245 2.8846 11.6964 1.85744 11.6964C0.833061 11.6964 0 10.8245 0 9.74693C0 4.36275 4.1588 0 9.288 0C14.4177 0 18.5743 4.36275 18.5743 9.74693C18.5743 10.241 18.5284 10.7217 18.46 11.1968C18.4451 11.2881 18.4369 11.3823 18.4201 11.4737C18.3389 11.9478 18.2288 12.4142 18.0827 12.8616C18.0768 12.8836 18.0664 12.9035 18.0601 12.9254C17.7395 13.8935 17.2833 14.7902 16.7065 15.5946C15.0132 17.9573 12.3246 19.4937 9.28812 19.4937H5.57266C4.54596 19.4937 3.71522 20.3686 3.71522 21.4432V52.6382C3.71522 53.7139 4.54596 54.5859 5.57266 54.5859H14.9527C14.8924 54.2708 14.8588 53.9471 14.8588 53.613V23.394C14.8588 19.0874 18.1869 15.5967 22.2894 15.5967H28.7912C29.9385 15.5967 30.9815 16.0403 31.7905 16.7684C31.8005 16.7751 31.8105 16.7637 31.8214 16.7722C32.1461 17.0654 32.5669 17.2406 33.0277 17.2406C33.2817 17.2406 33.5229 17.1882 33.7414 17.0911C33.8076 17.0606 33.8475 17.0654 33.8856 17.0701C36.0423 16.143 38.3875 15.5965 40.8635 15.5965C50.4918 15.5965 58.4075 23.2863 59.3443 33.1313C59.4069 33.4483 59.4378 33.7805 59.4378 34.1175V53.6133C59.438 56.3043 57.3602 58.4852 54.7944 58.4852ZM24.1474 54.5861C25.1718 54.5861 26.0048 55.46 26.0048 56.5356C26.0048 57.6133 25.1719 58.4852 24.1474 58.4852C23.1207 58.4852 22.2895 57.6133 22.2895 56.5356C22.2895 55.46 23.1208 54.5861 24.1474 54.5861Z" fill="black"/>
</svg>
