<svg width="59" height="59" viewBox="0 0 59 59" fill="none" xmlns="http://www.w3.org/2000/svg">
<g clip-path="url(#clip0_5_112)">
<path d="M59 29.5C59 13.2289 45.7711 -5.78254e-07 29.5 -1.28949e-06C13.2289 -2.00072e-06 3.23644e-06 13.2289 2.52521e-06 29.5C1.81398e-06 45.7711 13.2289 59 29.5 59C45.7711 59 59 45.7711 59 29.5ZM2.95 29.5C2.95 14.8422 14.8422 2.95 29.5 2.95C44.1578 2.95 56.05 14.8422 56.05 29.5C56.05 44.1578 44.1578 56.05 29.5 56.05C14.8422 56.05 2.95 44.1578 2.95 29.5ZM41.3 22.6781L29.5 33.925L17.7 22.6781L17.7 28.9008L29.5 39.825L41.3 28.9008L41.3 22.6781Z" fill="#0A0A0A"/>
</g>
<defs>
<clipPath id="clip0_5_112">
<rect width="59" height="59" fill="white" transform="translate(59) rotate(90)"/>
</clipPath>
</defs>
</svg>
