<svg width="584" height="584" viewBox="0 0 584 584" fill="none" xmlns="http://www.w3.org/2000/svg">
<circle cx="292" cy="292" r="292" fill="#A4A4A4"/>
<g clip-path="url(#clip0_5_91)">
<path d="M291.298 309.548C241.345 309.548 200.706 268.765 200.706 218.649C200.706 168.533 241.345 127.75 291.298 127.75C341.251 127.75 381.89 168.533 381.89 218.649C381.89 268.765 341.251 309.548 291.298 309.548ZM291.298 153.721C255.62 153.721 226.59 182.85 226.59 218.649C226.59 254.448 255.62 283.577 291.298 283.577C326.976 283.577 356.007 254.448 356.007 218.649C356.007 182.85 326.976 153.721 291.298 153.721Z" fill="black"/>
<path d="M433.657 543.289C426.51 543.289 420.715 537.481 420.715 530.303V450.893C420.715 401.183 380.411 360.742 330.869 360.742H251.727C202.185 360.742 161.881 401.183 161.881 450.893V530.303C161.881 537.481 156.086 543.289 148.939 543.289C141.792 543.289 135.998 537.481 135.998 530.303V450.893C135.998 386.866 187.916 334.771 251.727 334.771H330.869C394.68 334.771 446.599 386.866 446.599 450.893V530.303C446.599 537.481 440.804 543.289 433.657 543.289Z" fill="black"/>
</g>
<defs>
<clipPath id="clip0_5_91">
<rect width="414.135" height="415.539" fill="white" transform="translate(84.2308 127.75)"/>
</clipPath>
</defs>
</svg>
